
<svg width="104px" height="103px" viewBox="0 0 104 103" version="1.1" xmlns="http://www.w3.org/2000/svg" xmlns:xlink="http://www.w3.org/1999/xlink">
    <g id="Page-1" stroke="none" stroke-width="1" fill="none" fill-rule="evenodd">
        <g id="image2vector">
            <path d="M50.625,17.867 C50.437,18.06 50.333,18.427 50.333,18.897 C50.333,19.488 50.269,19.645 50,19.715 C49.735,19.784 49.667,19.942 49.667,20.484 C49.667,21.043 49.609,21.167 49.351,21.167 C49.012,21.167 48.833,21.475 48.833,22.06 C48.833,22.261 48.683,22.554 48.5,22.711 C48.307,22.877 48.167,23.203 48.167,23.487 C48.167,23.831 48.067,24.009 47.833,24.083 C47.65,24.142 47.5,24.323 47.5,24.486 C47.5,25.016 47.141,25.837 46.958,25.724 C46.859,25.663 46.831,25.694 46.894,25.796 C46.955,25.896 46.929,26.024 46.836,26.082 C46.743,26.139 46.667,26.361 46.667,26.574 C46.667,26.823 46.546,26.993 46.329,27.05 C46.143,27.098 46.001,27.201 46.015,27.277 C46.111,27.823 45.957,28.273 45.625,28.419 C45.349,28.54 45.236,28.749 45.198,29.208 C45.158,29.698 45.077,29.833 44.823,29.833 C44.606,29.833 44.5,29.948 44.5,30.182 C44.5,30.391 44.366,30.566 44.167,30.618 C43.906,30.687 43.833,30.846 43.833,31.353 C43.833,31.887 43.776,32 43.503,32 C43.291,32 43.136,32.147 43.07,32.411 C43.013,32.637 42.887,32.806 42.789,32.786 C42.691,32.766 42.513,32.938 42.394,33.167 C42.275,33.396 42.089,33.583 41.98,33.583 C41.872,33.583 41.757,33.771 41.724,34 C41.692,34.229 41.478,34.582 41.249,34.784 C41.021,34.986 40.833,35.267 40.833,35.409 C40.833,35.556 40.69,35.667 40.5,35.667 C40.279,35.667 40.167,35.778 40.167,35.997 C40.167,36.21 40.019,36.364 39.75,36.432 C39.501,36.494 39.333,36.655 39.333,36.832 C39.333,36.995 39.183,37.167 39,37.215 C38.817,37.263 38.667,37.422 38.667,37.568 C38.667,37.722 38.527,37.833 38.333,37.833 C38.115,37.833 38,37.944 38,38.155 C38,38.333 37.854,38.524 37.675,38.581 C37.497,38.637 37.304,38.83 37.247,39.009 C37.191,39.187 36.999,39.333 36.822,39.333 C36.611,39.333 36.5,39.448 36.5,39.667 C36.5,39.889 36.389,40 36.167,40 C35.944,40 35.833,40.111 35.833,40.333 C35.833,40.554 35.722,40.667 35.506,40.667 C35.205,40.667 34.753,41.197 34.915,41.36 C34.979,41.423 34.638,41.491 34.019,41.538 C33.892,41.548 33.752,41.693 33.708,41.861 C33.664,42.029 33.492,42.167 33.325,42.167 C33.159,42.167 32.975,42.317 32.917,42.5 C32.858,42.683 32.666,42.833 32.489,42.833 C32.256,42.833 32.167,42.949 32.167,43.25 C32.167,43.599 32.088,43.667 31.68,43.667 C31.059,43.667 30.642,43.826 30.761,44.018 C30.812,44.1 30.672,44.236 30.449,44.321 C30.227,44.405 30.005,44.63 29.955,44.821 C29.882,45.1 29.733,45.167 29.182,45.167 C28.611,45.167 28.5,45.221 28.5,45.5 C28.5,45.804 27.967,45.96 27.292,45.853 C27.223,45.842 27.167,45.975 27.167,46.148 C27.167,46.376 27.005,46.493 26.58,46.573 C26.257,46.634 25.901,46.829 25.789,47.008 C25.67,47.199 25.402,47.333 25.14,47.333 C24.569,47.333 24.144,47.496 24.254,47.673 C24.379,47.876 24.133,47.981 23.419,48.029 C22.972,48.059 22.76,48.16 22.706,48.369 C22.654,48.566 22.469,48.667 22.159,48.667 C21.717,48.667 21.167,49.031 21.167,49.324 C21.167,49.397 20.779,49.495 20.305,49.54 C19.809,49.588 19.366,49.731 19.259,49.876 C19.157,50.016 18.776,50.173 18.412,50.225 C18.048,50.278 17.741,50.324 17.729,50.327 C17.718,50.331 17.718,50.76 17.729,51.28 L17.75,52.228 L18.333,52.287 C19.132,52.368 19.373,52.468 19.251,52.665 C19.194,52.758 19.17,52.837 19.198,52.842 C19.227,52.846 19.587,52.889 20,52.936 C20.477,52.991 20.871,53.155 21.083,53.386 C21.269,53.589 21.672,53.776 21.996,53.808 C22.324,53.841 22.671,54.003 22.797,54.183 C22.942,54.39 23.218,54.5 23.593,54.5 C24.113,54.5 24.252,54.626 24.186,55.042 C24.176,55.11 24.504,55.167 24.917,55.167 C25.55,55.167 25.667,55.217 25.667,55.492 C25.667,55.737 25.822,55.847 26.292,55.934 C26.635,55.998 27.015,56.189 27.134,56.359 C27.272,56.553 27.557,56.667 27.907,56.667 C28.314,56.667 28.483,56.752 28.545,56.988 C28.603,57.209 28.804,57.326 29.19,57.363 C29.58,57.4 29.8,57.53 29.915,57.792 C30.005,57.998 30.206,58.167 30.362,58.167 C30.517,58.167 30.692,58.317 30.75,58.5 C30.808,58.683 31.001,58.833 31.178,58.833 C31.355,58.833 31.65,58.983 31.833,59.167 C32.017,59.35 32.308,59.5 32.481,59.5 C32.658,59.5 32.834,59.65 32.885,59.846 C32.935,60.036 33.131,60.232 33.321,60.282 C33.511,60.332 33.667,60.478 33.667,60.607 C33.667,60.736 33.89,60.886 34.164,60.941 C34.437,60.996 34.624,61.101 34.578,61.176 C34.467,61.356 35.163,61.833 35.537,61.833 C35.722,61.833 35.833,61.958 35.833,62.167 C35.833,62.382 35.944,62.5 36.147,62.5 C36.321,62.5 36.5,62.649 36.548,62.833 C36.596,63.017 36.755,63.167 36.901,63.167 C37.047,63.167 37.176,63.242 37.188,63.333 C37.199,63.425 37.218,63.594 37.229,63.708 C37.241,63.823 37.344,63.926 37.458,63.938 C37.573,63.949 37.742,63.968 37.833,63.979 C37.925,63.991 38,64.15 38,64.333 C38,64.549 38.111,64.667 38.314,64.667 C38.488,64.667 38.667,64.816 38.715,65 C38.763,65.183 38.916,65.333 39.056,65.333 C39.196,65.333 39.334,65.502 39.363,65.708 C39.398,65.949 39.551,66.102 39.792,66.137 C40.033,66.171 40.167,66.305 40.167,66.512 C40.167,66.722 40.282,66.833 40.5,66.833 C40.715,66.833 40.833,66.944 40.833,67.147 C40.833,67.321 40.982,67.5 41.166,67.548 C41.505,67.637 41.563,67.737 41.739,68.542 C41.794,68.794 41.951,69 42.087,69 C42.222,69 42.333,69.11 42.333,69.244 C42.333,69.378 42.483,69.569 42.667,69.667 C42.85,69.765 43,69.944 43,70.066 C43,70.187 43.188,70.427 43.417,70.6 C43.646,70.772 43.833,71.08 43.833,71.284 C43.833,71.488 43.983,71.735 44.167,71.833 C44.35,71.931 44.5,72.159 44.5,72.339 C44.5,72.556 44.613,72.667 44.833,72.667 C45.072,72.667 45.173,72.785 45.188,73.083 C45.199,73.313 45.218,73.569 45.229,73.653 C45.259,73.875 45.498,74.083 45.722,74.083 C45.829,74.083 45.94,74.33 45.969,74.63 C46,74.948 46.157,75.262 46.344,75.379 C46.527,75.493 46.667,75.766 46.667,76.009 C46.667,76.244 46.804,76.585 46.973,76.766 C47.26,77.074 47.588,77.929 47.527,78.208 C47.502,78.325 47.759,78.398 48.042,78.353 C48.11,78.342 48.167,78.662 48.167,79.064 C48.167,79.646 48.232,79.812 48.489,79.879 C48.724,79.94 48.825,80.137 48.864,80.606 C48.907,81.127 48.988,81.26 49.292,81.303 C49.612,81.349 49.667,81.458 49.667,82.055 C49.667,82.573 49.753,82.807 50,82.961 C50.252,83.119 50.333,83.35 50.333,83.908 C50.333,84.72 50.489,84.891 51.272,84.944 C52.109,85 52.672,84.254 52.52,83.292 C52.509,83.223 52.556,83.176 52.625,83.186 C52.954,83.238 53.058,83.145 52.833,83 C52.62,82.862 52.626,82.838 52.875,82.836 C53.109,82.834 53.167,82.686 53.167,82.083 C53.167,81.452 53.218,81.333 53.49,81.333 C53.752,81.333 53.824,81.198 53.865,80.625 C53.895,80.212 54.003,79.908 54.125,79.896 C54.24,79.884 54.404,79.866 54.49,79.854 C54.577,79.843 54.671,79.515 54.699,79.125 C54.735,78.629 54.825,78.417 55,78.417 C55.175,78.417 55.265,78.204 55.301,77.708 C55.336,77.225 55.429,77 55.594,77 C55.738,77 55.915,76.701 56.035,76.25 C56.146,75.837 56.325,75.5 56.433,75.5 C56.668,75.5 56.833,75.122 56.833,74.589 C56.833,74.346 56.955,74.174 57.167,74.118 C57.379,74.063 57.501,73.89 57.503,73.641 C57.505,73.277 57.825,72.561 57.831,72.907 C57.835,73.19 58.323,72.424 58.328,72.125 C58.331,71.965 58.39,71.842 58.458,71.853 C58.807,71.908 58.931,71.793 58.965,71.382 C58.985,71.134 59.088,70.853 59.192,70.757 C59.33,70.631 59.349,70.652 59.262,70.833 C59.196,70.971 59.26,70.938 59.404,70.76 C59.549,70.582 59.667,70.306 59.667,70.146 C59.667,69.986 59.817,69.808 60,69.75 C60.183,69.692 60.333,69.574 60.333,69.488 C60.333,69.402 60.521,69.168 60.75,68.969 C60.979,68.77 61.167,68.466 61.167,68.293 C61.167,68.121 61.223,68.014 61.292,68.056 C61.414,68.13 61.844,67.759 61.837,67.587 C61.81,66.919 61.857,66.833 62.25,66.833 C62.547,66.833 62.667,66.743 62.667,66.519 C62.667,66.346 62.816,66.167 63,66.118 C63.199,66.066 63.333,65.891 63.333,65.682 C63.333,65.421 63.438,65.333 63.75,65.333 C63.979,65.333 64.158,65.277 64.147,65.208 C64.089,64.84 64.202,64.667 64.5,64.667 C64.718,64.667 64.833,64.556 64.833,64.345 C64.833,64.167 64.983,63.975 65.167,63.917 C65.35,63.858 65.5,63.666 65.5,63.489 C65.5,63.273 65.615,63.167 65.849,63.167 C66.058,63.167 66.233,63.033 66.285,62.833 C66.333,62.65 66.483,62.5 66.618,62.5 C66.754,62.5 66.904,62.35 66.952,62.167 C67,61.982 67.179,61.833 67.353,61.833 C67.525,61.833 67.667,61.754 67.667,61.657 C67.667,61.56 67.742,61.527 67.833,61.583 C67.925,61.64 68,61.602 68,61.5 C68,61.398 68.087,61.367 68.192,61.433 C68.313,61.507 68.34,61.478 68.263,61.355 C68.186,61.229 68.327,61.093 68.654,60.979 C68.936,60.881 69.167,60.704 69.167,60.586 C69.167,60.469 69.317,60.333 69.5,60.285 C69.699,60.233 69.833,60.058 69.833,59.849 C69.833,59.572 69.937,59.5 70.333,59.5 C70.608,59.5 70.833,59.421 70.833,59.323 C70.833,59.226 70.927,59.203 71.042,59.272 C71.205,59.37 71.207,59.344 71.051,59.151 C70.886,58.947 70.925,58.898 71.284,58.869 C71.783,58.827 72.205,58.53 72.072,58.314 C72.021,58.233 72.158,58.167 72.375,58.167 C72.592,58.167 72.915,58.049 73.093,57.904 C73.271,57.76 73.304,57.699 73.167,57.77 C72.951,57.88 72.948,57.858 73.145,57.615 C73.271,57.46 73.547,57.333 73.759,57.333 C73.998,57.333 74.184,57.207 74.25,57 C74.332,56.741 74.502,56.667 75.011,56.667 C75.556,56.667 75.667,56.61 75.667,56.333 C75.667,56.118 75.785,55.993 76,55.979 C76.183,55.968 76.408,55.94 76.5,55.917 C76.592,55.894 76.779,55.866 76.917,55.854 C77.054,55.843 77.167,55.683 77.167,55.5 C77.167,55.223 77.278,55.167 77.822,55.167 C78.325,55.167 78.501,55.091 78.58,54.843 C78.657,54.602 78.863,54.505 79.383,54.468 C79.868,54.432 80.083,54.341 80.083,54.169 C80.083,54.012 80.314,53.885 80.717,53.819 C81.091,53.759 81.453,53.569 81.601,53.358 C81.768,53.12 82.031,52.999 82.384,52.998 C83.167,52.994 83.667,52.825 83.667,52.564 C83.667,52.407 83.875,52.333 84.322,52.333 C85.072,52.333 85.207,52.116 85.142,51.012 C85.12,50.639 85.097,50.331 85.092,50.327 C85.087,50.324 84.785,50.278 84.421,50.225 C84.057,50.173 83.658,50.007 83.534,49.856 C83.365,49.651 83.335,49.645 83.417,49.833 C83.487,49.997 83.442,49.982 83.286,49.792 C83.128,49.599 82.811,49.5 82.353,49.5 C81.765,49.5 81.634,49.436 81.5,49.083 C81.367,48.734 81.233,48.667 80.671,48.667 C80.302,48.667 80.009,48.61 80.02,48.542 C80.084,48.137 79.928,48.014 79.292,47.968 C78.796,47.932 78.583,47.842 78.583,47.667 C78.583,47.498 78.379,47.4 77.956,47.365 C77.564,47.332 77.176,47.16 76.922,46.906 C76.698,46.683 76.324,46.5 76.091,46.5 C75.794,46.5 75.667,46.41 75.667,46.201 C75.667,45.974 75.517,45.891 75.048,45.86 C74.382,45.815 74.25,45.746 74.25,45.444 C74.25,45.335 73.944,45.228 73.552,45.199 C72.979,45.158 72.845,45.083 72.802,44.783 C72.769,44.55 72.613,44.397 72.373,44.363 C72.165,44.334 72.029,44.255 72.07,44.188 C72.23,43.929 71.879,43.68 71.297,43.641 C70.962,43.618 70.722,43.546 70.762,43.48 C70.867,43.311 70.357,42.833 70.071,42.833 C69.94,42.833 69.833,42.683 69.833,42.5 C69.833,42.285 69.722,42.167 69.519,42.167 C69.347,42.167 69.169,42.028 69.125,41.859 C69.076,41.672 68.829,41.507 68.496,41.441 C68.194,41.38 67.995,41.283 68.054,41.224 C68.201,41.077 67.651,40.678 67.292,40.672 C67.113,40.669 67,40.538 67,40.333 C67,40.115 66.889,40 66.678,40 C66.501,40 66.308,39.85 66.25,39.667 C66.192,39.483 65.999,39.333 65.822,39.333 C65.615,39.333 65.5,39.218 65.5,39.011 C65.5,38.834 65.35,38.642 65.167,38.583 C64.983,38.525 64.833,38.363 64.833,38.223 C64.833,38.083 64.686,37.93 64.506,37.883 C64.325,37.836 64.133,37.655 64.078,37.482 C64.023,37.309 63.833,37.167 63.655,37.167 C63.448,37.167 63.333,37.052 63.333,36.845 C63.333,36.667 63.183,36.475 63,36.417 C62.817,36.358 62.667,36.166 62.667,35.989 C62.667,35.756 62.551,35.667 62.25,35.667 C61.917,35.667 61.833,35.583 61.833,35.25 C61.833,35.021 61.746,34.833 61.639,34.833 C61.532,34.833 61.493,34.784 61.553,34.725 C61.613,34.665 61.546,34.532 61.405,34.429 C61.264,34.325 61.124,34.093 61.094,33.912 C61.064,33.731 60.954,33.603 60.849,33.626 C60.745,33.65 60.59,33.487 60.506,33.265 C60.421,33.043 60.198,32.813 60.01,32.753 C59.819,32.693 59.667,32.501 59.667,32.322 C59.667,32.034 59.491,31.923 59.125,31.98 C59.056,31.991 59.009,31.944 59.02,31.875 C59.092,31.416 58.953,30.956 58.667,30.711 C58.483,30.554 58.333,30.351 58.333,30.26 C58.333,30.169 58.152,29.938 57.931,29.748 C57.71,29.558 57.504,29.181 57.473,28.91 C57.442,28.639 57.329,28.417 57.222,28.417 C56.927,28.417 56.847,28.281 56.803,27.7 C56.777,27.358 56.655,27.133 56.465,27.072 C56.294,27.018 56.167,26.816 56.167,26.6 C56.167,26.392 56.11,26.166 56.042,26.097 C55.973,26.028 55.917,25.885 55.917,25.778 C55.917,25.671 55.829,25.583 55.722,25.583 C55.42,25.583 55.352,25.452 55.307,24.785 C55.269,24.224 55.16,24.089 54.792,24.147 C54.723,24.158 54.667,23.937 54.667,23.656 C54.667,22.988 54.372,22.449 54.071,22.565 C53.887,22.636 53.833,22.487 53.833,21.911 C53.833,21.278 53.784,21.167 53.5,21.167 C53.216,21.167 53.167,21.056 53.167,20.417 C53.167,19.914 53.067,19.567 52.863,19.363 C52.697,19.197 52.49,18.733 52.405,18.333 C52.226,17.491 51.242,17.234 50.625,17.867" id="path0" fill="#FCC40C"></path>
            <path d="M41.224,0.24 C41.055,0.267 40.927,0.412 40.94,0.561 C40.961,0.806 38.755,1.008 37.917,0.839 C37.825,0.821 37.805,0.86 37.872,0.928 C38.16,1.215 37.346,1.605 36.58,1.548 C36.036,1.507 35.842,1.545 35.924,1.678 C36.01,1.818 35.949,1.818 35.687,1.677 C35.452,1.552 35.326,1.546 35.313,1.661 C35.301,1.756 35.282,1.922 35.271,2.031 C35.258,2.152 34.929,2.232 34.417,2.239 C33.854,2.246 33.596,2.316 33.623,2.454 C33.652,2.601 33.554,2.616 33.267,2.506 C32.923,2.376 32.882,2.399 32.955,2.678 C33.031,2.971 32.818,3.088 32.314,3.027 C32.257,3.02 32.045,3.191 31.843,3.406 C31.54,3.729 31.359,3.783 30.821,3.711 C30.393,3.653 30.167,3.688 30.167,3.811 C30.167,3.915 30.11,3.988 30.042,3.973 C29.973,3.958 29.697,4.037 29.428,4.147 C29.16,4.258 28.785,4.363 28.595,4.382 C28.406,4.401 28.175,4.562 28.084,4.74 C27.992,4.917 27.654,5.13 27.333,5.213 C27.012,5.295 26.69,5.469 26.617,5.598 C26.543,5.727 26.345,5.833 26.176,5.833 C26.007,5.833 25.826,5.946 25.773,6.083 C25.72,6.221 25.602,6.333 25.51,6.333 C25.419,6.333 25.392,6.209 25.45,6.056 C25.523,5.865 25.494,5.818 25.355,5.903 C25.234,5.978 25.199,6.171 25.267,6.388 C25.368,6.706 25.35,6.722 25.107,6.52 C24.901,6.348 24.833,6.343 24.833,6.499 C24.833,6.623 24.701,6.671 24.5,6.618 C24.235,6.549 24.167,6.613 24.167,6.932 C24.167,7.215 24.069,7.339 23.833,7.354 C23.65,7.366 23.425,7.394 23.333,7.417 C23.242,7.44 23.092,7.468 23,7.479 C22.908,7.491 22.852,7.592 22.875,7.704 C22.898,7.817 22.748,7.934 22.542,7.966 C22.31,8.001 22.128,8.177 22.066,8.428 C21.973,8.798 21.567,8.952 20.954,8.852 C20.882,8.84 20.778,8.949 20.723,9.095 C20.667,9.24 20.438,9.429 20.214,9.514 C19.99,9.599 19.838,9.762 19.876,9.876 C19.914,9.99 19.733,10.173 19.473,10.284 C19.213,10.394 19,10.6 19,10.742 C19,10.889 18.856,11 18.667,11 C18.483,11 18.333,11.084 18.333,11.187 C18.333,11.315 18.253,11.307 18.079,11.163 C17.94,11.047 17.777,11.001 17.718,11.06 C17.659,11.118 17.699,11.167 17.806,11.167 C17.913,11.167 18,11.245 18,11.34 C18,11.65 17.601,11.952 17.297,11.872 C17.109,11.823 17,11.887 17,12.046 C17,12.184 16.813,12.344 16.583,12.402 C16.314,12.469 16.167,12.623 16.167,12.837 C16.167,13.018 16.073,13.168 15.958,13.169 C15.819,13.171 15.833,13.226 16,13.333 C16.263,13.503 16.139,13.556 15.583,13.512 C15.375,13.495 15.321,13.535 15.44,13.618 C15.578,13.714 15.567,13.808 15.398,13.965 C15.235,14.117 15.167,14.123 15.167,13.986 C15.167,13.851 15.086,13.86 14.898,14.015 C14.721,14.162 14.695,14.26 14.822,14.302 C14.967,14.35 14.966,14.423 14.821,14.598 C14.716,14.725 14.562,14.789 14.481,14.738 C14.4,14.688 14.333,14.731 14.333,14.833 C14.333,14.936 14.253,14.97 14.156,14.91 C14.05,14.845 13.999,14.918 14.031,15.091 C14.067,15.292 13.966,15.392 13.708,15.414 C13.218,15.454 13.125,15.563 13.125,16.094 C13.125,16.408 13.083,16.47 12.979,16.309 C12.858,16.121 12.807,16.125 12.675,16.329 C12.572,16.49 12.581,16.614 12.702,16.689 C12.808,16.754 12.714,16.828 12.485,16.86 C12.264,16.891 12.009,17.085 11.919,17.292 C11.828,17.498 11.66,17.667 11.544,17.667 C11.428,17.667 11.333,17.775 11.333,17.908 C11.333,18.041 11.214,18.217 11.068,18.298 C10.923,18.38 10.794,18.515 10.782,18.598 C10.77,18.682 10.663,18.728 10.544,18.7 C10.425,18.673 10.338,18.711 10.35,18.784 C10.441,19.324 10.303,19.667 9.993,19.667 C9.805,19.667 9.664,19.76 9.679,19.875 C9.754,20.453 9.658,20.911 9.51,20.677 C9.383,20.476 9.316,20.474 9.088,20.663 C8.891,20.826 8.871,20.92 9.014,21.009 C9.143,21.089 9.081,21.171 8.833,21.25 C8.532,21.345 8.503,21.403 8.686,21.533 C8.86,21.655 8.83,21.677 8.567,21.62 C8.286,21.559 8.225,21.618 8.258,21.915 C8.307,22.359 8.183,22.571 7.792,22.715 C7.631,22.774 7.5,22.98 7.5,23.171 C7.5,23.406 7.432,23.479 7.292,23.395 C7.125,23.295 7.125,23.321 7.29,23.525 C7.527,23.818 7.409,24.018 7.074,23.89 C6.809,23.788 6.574,24.518 6.736,24.94 C6.827,25.178 6.805,25.184 6.563,24.983 C6.314,24.776 6.296,24.795 6.391,25.168 C6.449,25.396 6.454,25.49 6.401,25.375 C6.227,24.995 6,25.159 6,25.667 C6,25.942 5.925,26.176 5.833,26.188 C5.742,26.199 5.573,26.22 5.458,26.233 C5.344,26.247 5.268,26.406 5.29,26.587 C5.357,27.151 5.172,27.667 4.902,27.667 C4.72,27.667 4.675,27.765 4.75,28 C4.811,28.191 4.78,28.333 4.678,28.333 C4.58,28.333 4.5,28.563 4.5,28.843 C4.5,29.124 4.43,29.31 4.345,29.257 C4.081,29.094 3.881,29.552 3.791,30.525 C3.758,30.883 3.697,30.938 3.468,30.816 C3.294,30.723 3.148,30.729 3.084,30.833 C3.027,30.925 3.079,31.001 3.198,31.003 C3.357,31.004 3.348,31.049 3.167,31.167 C2.959,31.301 2.974,31.329 3.25,31.333 C3.451,31.336 3.509,31.387 3.397,31.461 C3.295,31.528 3.159,31.753 3.094,31.961 C3.029,32.168 2.912,32.298 2.833,32.25 C2.754,32.201 2.635,32.249 2.569,32.356 C2.494,32.478 2.521,32.507 2.641,32.433 C2.923,32.258 2.876,32.591 2.583,32.833 C2.281,33.084 2.249,33.401 2.542,33.235 C2.708,33.141 2.708,33.163 2.542,33.342 C2.427,33.466 2.333,33.739 2.333,33.95 C2.333,34.161 2.254,34.333 2.157,34.333 C2.06,34.333 2.026,34.407 2.082,34.498 C2.138,34.589 2.08,34.623 1.952,34.574 C1.774,34.505 1.714,34.689 1.693,35.367 C1.659,36.482 1.512,37.194 1.339,37.087 C1.265,37.041 1.112,37.115 0.998,37.252 C0.833,37.451 0.838,37.501 1.021,37.503 C1.179,37.504 1.192,37.543 1.061,37.628 C0.957,37.695 0.868,38.054 0.864,38.426 C0.852,39.361 0.79,39.567 0.485,39.693 C0.197,39.812 0.021,43.735 0.289,44.084 C0.514,44.379 2.713,44.362 2.6,44.066 C2.547,43.928 2.573,43.859 2.657,43.911 C2.741,43.963 2.857,43.929 2.915,43.836 C2.973,43.743 3.203,43.667 3.427,43.667 C3.65,43.667 3.833,43.589 3.833,43.494 C3.833,43.377 3.941,43.379 4.167,43.5 C4.42,43.635 4.501,43.627 4.503,43.464 C4.504,43.309 4.547,43.316 4.658,43.491 C4.777,43.681 4.835,43.636 4.923,43.283 C5.028,42.864 5.419,42.705 6.059,42.819 C6.138,42.834 6.288,42.777 6.393,42.694 C6.497,42.611 6.715,42.564 6.876,42.59 C7.037,42.616 7.126,42.568 7.074,42.484 C6.967,42.311 7.146,42.238 8.042,42.089 C8.515,42.01 8.667,41.906 8.667,41.659 C8.667,41.383 8.784,41.333 9.436,41.333 C10.124,41.333 10.196,41.298 10.118,41 C10.07,40.816 10.099,40.708 10.182,40.76 C10.265,40.811 10.333,40.787 10.333,40.707 C10.333,40.626 10.588,40.581 10.898,40.605 C11.286,40.636 11.555,40.549 11.754,40.329 C11.914,40.152 12.11,40.048 12.189,40.097 C12.268,40.146 12.333,40.121 12.333,40.042 C12.333,39.963 12.565,39.914 12.847,39.933 C13.325,39.966 13.354,39.938 13.253,39.526 C13.149,39.1 13.154,39.096 13.4,39.417 C13.629,39.714 13.657,39.719 13.661,39.458 C13.665,39.26 13.8,39.167 14.083,39.167 C14.343,39.167 14.5,39.072 14.5,38.917 C14.5,38.779 14.556,38.66 14.625,38.653 C15.717,38.533 16.243,38.271 16.057,37.939 C15.995,37.828 16.044,37.836 16.176,37.958 C16.509,38.268 16.743,38.211 16.479,37.885 C16.288,37.649 16.288,37.625 16.477,37.739 C16.617,37.823 16.76,37.788 16.849,37.646 C16.95,37.488 16.996,37.48 16.997,37.62 C16.999,37.735 17.113,37.78 17.26,37.723 C17.402,37.668 17.479,37.518 17.429,37.389 C17.327,37.124 17.561,37 18.266,36.948 C18.587,36.925 18.806,36.786 18.916,36.537 C19.007,36.331 19.173,36.197 19.285,36.24 C19.397,36.284 19.534,36.247 19.588,36.159 C19.642,36.072 19.829,36 20.004,36 C20.179,36 20.412,35.831 20.522,35.625 C20.646,35.395 20.749,35.331 20.792,35.459 C20.913,35.822 21.143,35.683 21.197,35.213 C21.241,34.837 21.333,34.759 21.736,34.755 C22.014,34.752 22.258,34.644 22.305,34.503 C22.434,34.113 22.814,33.801 23.01,33.923 C23.109,33.984 23.229,33.882 23.278,33.695 C23.331,33.49 23.459,33.392 23.6,33.446 C23.728,33.495 23.833,33.443 23.833,33.329 C23.833,33.029 24.49,32.506 24.743,32.604 C24.862,32.65 25.1,32.509 25.272,32.291 C25.582,31.896 25.682,31.833 26,31.833 C26.092,31.833 26.158,31.777 26.147,31.708 C26.086,31.322 26.212,31.167 26.583,31.167 C26.889,31.167 27,31.078 27,30.833 C27,30.605 27.111,30.5 27.351,30.5 C27.587,30.5 27.672,30.422 27.611,30.262 C27.505,29.986 27.865,29.633 28.183,29.702 C28.304,29.729 28.405,29.602 28.409,29.417 C28.414,29.201 28.549,29.065 28.792,29.03 C29.033,28.996 29.167,28.862 29.167,28.655 C29.167,28.444 29.282,28.333 29.5,28.333 C29.742,28.333 29.833,28.222 29.833,27.927 C29.833,27.703 29.908,27.473 30,27.417 C30.092,27.36 30.167,27.398 30.167,27.5 C30.167,27.602 30.247,27.637 30.344,27.576 C30.442,27.516 30.485,27.429 30.439,27.383 C30.316,27.26 31.683,26 31.939,26 C32.058,26 32.121,25.906 32.079,25.792 C32.036,25.677 32.07,25.358 32.153,25.083 C32.279,24.669 32.307,24.648 32.319,24.958 C32.335,25.384 32.583,25.459 32.727,25.083 C32.78,24.946 32.731,24.832 32.62,24.831 C32.473,24.829 32.469,24.794 32.606,24.706 C32.71,24.638 32.823,24.433 32.858,24.25 C32.893,24.067 33.033,23.917 33.169,23.917 C33.305,23.917 33.426,23.823 33.438,23.708 C33.449,23.594 33.468,23.425 33.479,23.333 C33.491,23.242 33.61,23.167 33.744,23.167 C33.878,23.167 34.078,22.998 34.188,22.792 C34.298,22.585 34.504,22.331 34.646,22.226 C34.788,22.122 34.913,21.822 34.924,21.56 C34.939,21.207 35.038,21.07 35.305,21.03 C35.504,21.001 35.667,20.866 35.667,20.731 C35.667,20.596 35.821,20.32 36.01,20.118 L36.352,19.75 L35.968,19.642 C35.607,19.54 35.611,19.532 36.042,19.517 C36.41,19.503 36.5,19.421 36.5,19.099 C36.5,18.777 36.567,18.715 36.84,18.787 C37.028,18.836 37.169,18.81 37.154,18.73 C37.033,18.072 37.193,17.372 37.458,17.394 C37.66,17.41 37.766,17.275 37.803,16.958 C37.832,16.706 37.925,16.5 38.011,16.5 C38.097,16.5 38.152,16.444 38.134,16.375 C38.065,16.117 38.364,15.499 38.512,15.591 C38.597,15.643 38.667,15.559 38.667,15.403 C38.667,15.247 38.798,15.013 38.958,14.881 C39.119,14.75 39.161,14.686 39.053,14.74 C38.945,14.794 38.808,14.761 38.749,14.665 C38.69,14.57 38.704,14.502 38.779,14.516 C39.24,14.596 39.367,14.472 39.299,14.01 C39.256,13.719 39.299,13.533 39.405,13.552 C39.503,13.569 39.563,13.484 39.538,13.363 C39.512,13.241 39.56,13.184 39.644,13.236 C39.881,13.382 40.118,12.963 40.083,12.458 C40.063,12.161 40.134,12 40.286,12 C40.414,12 40.473,11.924 40.415,11.831 C40.357,11.737 40.235,11.708 40.143,11.765 C40.051,11.822 40.072,11.714 40.189,11.526 C40.342,11.28 40.461,11.232 40.608,11.354 C40.764,11.483 40.825,11.351 40.865,10.804 C40.9,10.313 40.987,10.098 41.137,10.129 C41.259,10.154 41.311,10.098 41.253,10.004 C41.194,9.91 41.226,9.833 41.323,9.833 C41.421,9.833 41.5,9.58 41.5,9.269 C41.5,8.846 41.583,8.684 41.833,8.618 C42.036,8.565 42.177,8.378 42.192,8.141 C42.24,7.401 42.254,7.346 42.447,7.153 C42.554,7.046 42.601,6.856 42.552,6.73 C42.497,6.586 42.58,6.499 42.774,6.497 C43.035,6.495 43.045,6.469 42.833,6.331 C42.633,6.199 42.626,6.139 42.8,6.026 C42.92,5.949 43.005,5.818 42.989,5.735 C42.911,5.322 43.026,5 43.25,5 C43.387,5 43.513,4.869 43.529,4.708 C43.544,4.548 43.574,4.304 43.594,4.167 C43.615,4.029 43.639,3.673 43.649,3.375 C43.663,2.95 43.739,2.833 44,2.833 C44.365,2.833 44.356,2.865 44.422,1.375 C44.45,0.724 44.395,0.286 44.275,0.209 C43.968,0.011 42.106,0.028 41.843,0.231 C41.66,0.373 41.632,0.367 41.728,0.208 C41.857,-0.006 41.796,-0.074 41.626,0.096 C41.574,0.149 41.392,0.214 41.224,0.24 Z M58.667,2.718 C58.821,2.827 59,3.253 59.065,3.665 C59.13,4.076 59.342,4.582 59.535,4.788 C59.767,5.034 59.88,5.359 59.866,5.738 C59.85,6.171 59.924,6.34 60.163,6.416 C60.407,6.493 60.494,6.702 60.533,7.3 C60.571,7.893 60.644,8.07 60.833,8.03 C61.034,7.987 61.042,8.018 60.875,8.188 C60.59,8.478 60.613,8.677 60.917,8.56 C61.072,8.501 61.175,8.566 61.188,8.732 C61.199,8.879 61.227,9.075 61.25,9.167 C61.273,9.258 61.301,9.508 61.313,9.722 C61.333,10.108 61.806,10.288 61.861,9.931 C61.877,9.831 61.933,10.2 61.986,10.75 C62.051,11.414 62.152,11.736 62.289,11.709 C62.51,11.665 62.656,12.095 62.714,12.96 C62.738,13.323 62.821,13.476 62.964,13.421 C63.154,13.349 63.452,13.832 63.465,14.235 C63.468,14.318 63.584,14.451 63.724,14.529 C63.863,14.607 64.09,14.896 64.227,15.171 C64.365,15.447 64.395,15.621 64.294,15.559 C64.174,15.485 64.149,15.546 64.222,15.736 C64.283,15.896 64.333,16.059 64.333,16.097 C64.333,16.135 64.45,16.167 64.593,16.167 C64.736,16.167 64.807,16.242 64.75,16.333 C64.693,16.425 64.724,16.5 64.818,16.5 C64.912,16.5 64.946,16.612 64.894,16.75 C64.841,16.887 64.878,17 64.977,17 C65.076,17 65.118,17.1 65.071,17.222 C65.024,17.344 65.094,17.444 65.227,17.444 C65.369,17.444 65.436,17.336 65.389,17.181 C65.346,17.035 65.416,17.093 65.545,17.309 C65.675,17.525 65.747,17.876 65.706,18.089 C65.656,18.355 65.742,18.544 65.983,18.695 C66.176,18.815 66.333,19.045 66.333,19.205 C66.333,19.366 66.544,19.704 66.801,19.957 C67.061,20.213 67.24,20.546 67.205,20.708 C67.162,20.908 67.245,21 67.466,21 C67.715,21 67.815,21.153 67.896,21.657 C67.954,22.019 68.075,22.36 68.165,22.416 C68.26,22.475 68.291,22.391 68.238,22.217 C68.188,22.052 68.306,22.204 68.501,22.555 C68.697,22.908 68.947,23.159 69.061,23.115 C69.199,23.062 69.256,23.195 69.233,23.518 C69.205,23.925 69.262,24 69.6,24 C69.874,24 70,24.094 70,24.3 C70,24.465 70.094,24.701 70.208,24.824 C70.378,25.007 70.37,25.023 70.167,24.909 C70.029,24.832 70.224,25.066 70.599,25.43 C70.974,25.793 71.37,26.257 71.479,26.462 C71.589,26.666 71.78,26.833 71.904,26.833 C72.029,26.833 72.178,27.021 72.235,27.25 C72.293,27.479 72.451,27.667 72.587,27.667 C72.722,27.667 72.833,27.778 72.833,27.913 C72.833,28.049 73.021,28.207 73.25,28.265 C73.511,28.33 73.667,28.487 73.667,28.685 C73.667,28.889 73.784,29 74,29 C74.244,29 74.333,29.111 74.333,29.417 C74.333,29.851 74.582,29.986 74.716,29.625 C74.759,29.509 74.877,29.628 74.982,29.891 C75.086,30.152 75.313,30.403 75.487,30.448 C75.66,30.494 75.841,30.68 75.889,30.861 C75.95,31.094 76.09,31.176 76.363,31.138 C76.681,31.093 76.741,31.15 76.698,31.458 C76.662,31.713 76.731,31.833 76.913,31.833 C77.06,31.833 77.346,31.988 77.549,32.177 C77.889,32.495 77.892,32.512 77.583,32.4 C77.4,32.334 77.299,32.335 77.36,32.403 C77.475,32.531 77.884,32.632 78.375,32.654 C78.573,32.663 78.667,32.803 78.667,33.093 C78.667,33.328 78.736,33.477 78.82,33.425 C78.904,33.373 79.077,33.434 79.204,33.561 C79.331,33.688 79.731,33.956 80.092,34.156 C80.454,34.356 80.615,34.479 80.45,34.428 C80.276,34.375 80.192,34.406 80.251,34.501 C80.307,34.592 80.648,34.713 81.01,34.771 C81.519,34.852 81.667,34.95 81.667,35.207 C81.667,35.443 81.752,35.516 81.963,35.461 C82.384,35.351 82.798,35.808 82.481,36.033 C82.3,36.163 82.311,36.178 82.536,36.106 C82.694,36.056 82.871,36.093 82.93,36.188 C82.989,36.284 83.176,36.326 83.345,36.282 C83.544,36.23 83.745,36.345 83.92,36.611 C84.085,36.864 84.328,37.01 84.552,36.992 C85.207,36.94 85.315,36.995 85.247,37.349 C85.199,37.601 85.247,37.671 85.423,37.604 C85.557,37.552 85.667,37.596 85.667,37.7 C85.667,37.804 85.716,37.84 85.776,37.779 C85.837,37.719 85.987,37.753 86.11,37.855 C86.233,37.957 86.333,37.977 86.333,37.9 C86.333,37.823 86.454,37.931 86.601,38.141 C86.748,38.351 86.967,38.484 87.088,38.438 C87.21,38.391 87.399,38.462 87.51,38.595 C87.653,38.767 87.771,38.787 87.919,38.664 C88.069,38.54 88.156,38.565 88.229,38.754 C88.287,38.906 88.26,38.974 88.165,38.915 C88.074,38.859 88,38.893 88,38.99 C88,39.087 88.3,39.167 88.667,39.167 C89.111,39.167 89.319,39.236 89.292,39.375 C89.269,39.49 89.344,39.565 89.458,39.542 C89.573,39.519 89.667,39.612 89.667,39.75 C89.667,39.912 89.829,40 90.127,40 C90.406,40 90.668,40.131 90.795,40.333 C90.958,40.594 91.183,40.667 91.835,40.667 C92.292,40.667 92.658,40.723 92.647,40.792 C92.577,41.234 92.719,41.333 93.424,41.333 C94.049,41.333 94.173,41.384 94.132,41.621 C94.105,41.78 94.171,41.911 94.278,41.913 C94.385,41.915 94.528,41.973 94.597,42.042 C94.666,42.11 95.097,42.167 95.556,42.167 C96.014,42.167 96.342,42.213 96.286,42.27 C96.104,42.452 96.568,42.759 97.083,42.798 C97.358,42.819 97.608,42.911 97.639,43.001 C97.669,43.092 97.801,43.167 97.931,43.167 C98.06,43.167 98.167,43.237 98.167,43.323 C98.167,43.409 98.523,43.533 98.958,43.597 C99.394,43.662 99.865,43.847 100.006,44.008 C100.217,44.25 100.48,44.291 101.506,44.245 C103.027,44.175 103.175,44.149 103.064,43.97 C103.016,43.892 102.897,43.877 102.8,43.937 C102.698,44.001 102.659,43.949 102.708,43.815 C102.754,43.688 102.864,43.598 102.951,43.616 C103.039,43.634 103.111,43.543 103.111,43.415 C103.111,43.286 103.056,43.215 102.99,43.256 C102.777,43.388 102.667,42.84 102.667,41.653 C102.667,40.912 102.6,40.5 102.48,40.5 C102.358,40.5 102.372,40.402 102.521,40.219 C102.72,39.974 102.714,39.951 102.475,40.041 C102.185,40.149 102.152,39.922 102.4,39.525 C102.514,39.343 102.473,39.336 102.187,39.489 C101.842,39.674 101.833,39.649 101.833,38.506 C101.833,37.861 101.761,37.333 101.672,37.333 C101.583,37.333 101.559,37.208 101.617,37.054 C101.701,36.837 101.658,36.801 101.422,36.892 C101.166,36.99 101.152,36.969 101.33,36.754 C101.502,36.547 101.497,36.5 101.304,36.5 C101.131,36.5 101.085,36.342 101.135,35.917 C101.172,35.597 101.146,35.203 101.076,35.042 C101.006,34.882 100.942,34.637 100.933,34.5 C100.924,34.362 100.823,34.269 100.708,34.292 C100.587,34.316 100.488,34.142 100.471,33.875 C100.444,33.432 100.409,33.024 100.354,32.5 C100.331,32.278 100.31,32.278 100.167,32.5 C100.049,32.682 100.004,32.69 100.003,32.532 C100.001,32.412 99.925,32.36 99.833,32.417 C99.684,32.509 99.59,32.019 99.628,31.34 C99.648,30.974 99.338,30.477 99.158,30.589 C99.024,30.671 98.906,29.892 98.985,29.444 C98.999,29.367 98.857,29.265 98.671,29.216 C98.36,29.135 98.259,28.824 98.289,28.04 C98.293,27.925 98.117,27.786 97.898,27.731 C97.562,27.646 97.498,27.524 97.487,26.94 C97.48,26.561 97.437,26.34 97.393,26.449 C97.254,26.791 96.833,26.485 96.833,26.042 C96.833,25.81 96.702,25.513 96.542,25.381 C96.381,25.25 96.341,25.188 96.452,25.244 C96.563,25.3 96.474,25.028 96.254,24.64 C96.034,24.253 95.891,23.875 95.937,23.801 C95.982,23.727 95.898,23.667 95.75,23.667 C95.602,23.667 95.527,23.742 95.583,23.833 C95.64,23.925 95.602,24 95.499,24 C95.397,24 95.329,23.869 95.349,23.708 C95.408,23.245 95.151,22.508 94.946,22.547 C94.842,22.567 94.732,22.415 94.701,22.208 C94.663,21.96 94.528,21.833 94.302,21.833 C94.045,21.833 93.982,21.753 94.047,21.506 C94.098,21.312 94.055,21.193 93.941,21.214 C93.836,21.234 93.773,21.113 93.802,20.945 C93.835,20.752 93.729,20.608 93.51,20.551 C93.317,20.5 93.167,20.324 93.167,20.147 C93.167,19.975 93.095,19.833 93.006,19.833 C92.733,19.833 92.187,19.142 92.276,18.909 C92.323,18.787 92.205,18.589 92.014,18.47 C91.823,18.351 91.667,18.121 91.667,17.96 C91.667,17.698 91.484,17.591 91.128,17.646 C91.061,17.656 90.959,17.478 90.902,17.249 C90.836,16.989 90.679,16.833 90.482,16.833 C90.279,16.833 90.167,16.716 90.167,16.503 C90.167,16.294 90.021,16.136 89.769,16.073 C89.466,15.997 89.393,15.891 89.462,15.627 C89.538,15.338 89.493,15.296 89.193,15.375 C88.9,15.451 88.833,15.396 88.833,15.079 C88.833,14.802 88.725,14.674 88.458,14.637 C88.208,14.601 88.1,14.486 88.132,14.292 C88.159,14.13 88.078,14 87.949,14 C87.677,14 86.667,13.076 86.667,12.828 C86.667,12.735 86.479,12.587 86.25,12.5 C86.021,12.413 85.833,12.236 85.833,12.107 C85.833,11.872 85.341,11.629 84.793,11.593 C84.46,11.571 84.471,11.274 84.807,11.224 C85.221,11.164 85.184,11.042 84.751,11.042 C84.515,11.042 84.187,10.92 84.023,10.77 C83.858,10.621 83.661,10.556 83.585,10.625 C83.509,10.694 83.501,10.656 83.567,10.541 C83.643,10.408 83.534,10.275 83.263,10.172 C82.992,10.069 82.873,9.923 82.933,9.769 C82.995,9.607 82.896,9.507 82.638,9.468 C82.424,9.435 82.267,9.321 82.288,9.215 C82.325,9.029 81.858,8.794 81.559,8.847 C81.078,8.933 80.64,8.81 80.716,8.611 C80.763,8.489 80.623,8.254 80.404,8.09 C80.185,7.926 80.044,7.731 80.09,7.656 C80.136,7.582 79.834,7.471 79.42,7.408 C78.833,7.32 78.667,7.226 78.667,6.981 C78.667,6.774 78.539,6.658 78.292,6.641 C78.085,6.627 77.824,6.608 77.71,6.598 C77.597,6.588 77.386,6.412 77.243,6.207 C77.099,6.001 76.852,5.833 76.694,5.833 C76.536,5.833 76.279,5.683 76.122,5.5 C75.965,5.317 75.652,5.167 75.426,5.167 C75.2,5.167 74.833,4.985 74.611,4.762 C74.345,4.497 74.056,4.375 73.768,4.406 C73.42,4.445 73.307,4.369 73.225,4.045 C73.169,3.819 73.076,3.698 73.02,3.776 C72.867,3.985 72.5,4.025 72.5,3.833 C72.5,3.742 72.25,3.667 71.944,3.667 C71.288,3.667 71.102,3.529 71.35,3.23 C71.49,3.061 71.443,3.016 71.14,3.03 C70.081,3.077 69.87,3.004 69.757,2.55 C69.677,2.233 69.604,2.165 69.509,2.318 C69.43,2.447 69.334,2.47 69.275,2.374 C69.22,2.285 68.86,2.212 68.474,2.212 C67.987,2.212 67.694,2.115 67.512,1.894 C67.215,1.533 66.232,1.364 66.44,1.709 C66.524,1.85 66.474,1.844 66.284,1.69 C66.13,1.565 65.892,1.506 65.755,1.558 C65.521,1.648 65.085,1.138 65.252,0.97 C65.292,0.93 64.559,0.878 63.622,0.854 C62.356,0.823 61.884,0.751 61.785,0.575 C61.712,0.444 61.497,0.254 61.306,0.152 C61.027,0.003 60.986,0.01 61.095,0.192 C61.199,0.365 61.175,0.376 60.99,0.239 C60.704,0.029 58.564,-0.075 58.451,0.117 C58.231,0.492 58.399,2.528 58.667,2.718 Z M31.459,3.5 C31.551,3.5 31.719,3.388 31.833,3.25 C31.949,3.111 31.967,3 31.874,3 C31.782,3 31.614,3.112 31.5,3.25 C31.384,3.389 31.366,3.5 31.459,3.5 Z M91.745,18.675 C91.806,18.576 91.933,18.542 92.026,18.599 C92.14,18.67 92.137,18.763 92.017,18.883 C91.803,19.097 91.586,18.931 91.745,18.675 Z M0.373,61.361 C0.54,61.467 0.54,61.495 0.375,61.497 C0.26,61.499 0.167,61.612 0.167,61.75 C0.167,61.887 0.26,62.001 0.375,62.003 C0.516,62.004 0.503,62.056 0.337,62.161 C0.13,62.292 0.144,62.337 0.421,62.45 C0.81,62.608 0.805,62.588 0.848,64.216 C0.867,64.917 0.946,65.45 1.024,65.402 C1.103,65.353 1.167,65.398 1.167,65.5 C1.167,65.602 1.234,65.645 1.317,65.593 C1.484,65.49 1.861,66.417 1.713,66.565 C1.661,66.617 1.708,66.766 1.818,66.898 C1.938,67.043 1.953,67.176 1.857,67.235 C1.77,67.289 1.74,67.495 1.792,67.691 C1.876,68.014 1.905,68.022 2.085,67.776 C2.259,67.538 2.286,67.562 2.291,67.959 C2.304,69.103 2.405,69.602 2.668,69.833 C2.824,69.971 3.005,70.446 3.071,70.888 C3.163,71.502 3.249,71.671 3.438,71.598 C3.576,71.545 3.639,71.576 3.582,71.669 C3.526,71.759 3.56,71.833 3.657,71.833 C3.755,71.833 3.833,72.167 3.833,72.583 C3.833,73.222 3.883,73.333 4.167,73.333 C4.489,73.333 4.575,73.55 4.51,74.201 C4.494,74.358 4.636,74.582 4.824,74.7 C5.013,74.817 5.167,75.077 5.167,75.276 C5.167,75.861 5.351,76.182 5.783,76.346 C6.005,76.43 6.138,76.579 6.078,76.676 C5.871,77.01 6.16,77.707 6.471,77.626 C6.712,77.563 6.75,77.644 6.695,78.108 C6.656,78.445 6.704,78.667 6.815,78.667 C6.917,78.667 7.006,78.535 7.013,78.375 C7.023,78.148 7.045,78.139 7.11,78.333 C7.156,78.471 7.235,78.696 7.286,78.833 C7.337,78.971 7.387,79.271 7.398,79.5 C7.411,79.798 7.524,79.932 7.792,79.97 C7.998,79.999 8.167,80.127 8.167,80.253 C8.167,80.38 8.298,80.56 8.458,80.653 C8.619,80.747 8.675,80.827 8.583,80.831 C8.492,80.835 8.506,80.895 8.614,80.964 C8.723,81.033 8.842,81.313 8.88,81.586 C8.934,81.985 9.019,82.073 9.307,82.031 C9.577,81.992 9.667,82.066 9.667,82.327 C9.667,82.548 9.824,82.735 10.1,82.84 C10.383,82.947 10.501,83.09 10.439,83.251 C10.377,83.414 10.482,83.531 10.756,83.6 C11.147,83.698 11.236,83.84 11.182,84.28 C11.169,84.387 11.347,84.665 11.579,84.897 C11.81,85.129 12,85.397 12,85.492 C12,85.588 12.112,85.667 12.25,85.667 C12.387,85.667 12.5,85.777 12.5,85.912 C12.5,86.048 12.73,86.277 13.012,86.423 C13.429,86.639 13.487,86.732 13.325,86.927 C13.16,87.125 13.202,87.167 13.563,87.167 C13.833,87.167 14,87.259 14,87.407 C14,87.54 14.136,87.746 14.303,87.866 C14.469,87.985 14.654,88.215 14.714,88.375 C14.774,88.535 14.963,88.667 15.134,88.667 C15.562,88.667 15.699,88.843 15.478,89.11 C15.331,89.287 15.383,89.333 15.73,89.333 C16.056,89.333 16.167,89.418 16.167,89.667 C16.167,89.882 16.278,90 16.48,90 C16.652,90 16.918,90.169 17.071,90.375 C17.224,90.581 17.302,90.638 17.245,90.5 C17.153,90.278 17.166,90.278 17.363,90.5 C17.484,90.638 17.688,90.75 17.815,90.75 C17.943,90.75 18.13,90.897 18.232,91.076 C18.333,91.256 18.509,91.503 18.621,91.626 C18.734,91.749 18.895,91.974 18.98,92.125 C19.116,92.368 19.17,92.372 19.433,92.159 C19.615,92.011 19.682,91.998 19.605,92.125 C19.537,92.24 19.56,92.333 19.657,92.333 C19.754,92.333 19.833,92.483 19.833,92.667 C19.833,92.911 19.944,93 20.25,93 C20.502,93 20.667,93.095 20.667,93.24 C20.667,93.372 20.754,93.535 20.862,93.601 C20.996,93.684 21.022,93.623 20.945,93.402 C20.836,93.093 20.84,93.093 21.083,93.407 C21.221,93.585 21.333,93.681 21.333,93.621 C21.333,93.56 21.502,93.573 21.707,93.649 C21.913,93.725 22.082,93.928 22.082,94.099 C22.083,94.282 22.221,94.433 22.417,94.464 C22.966,94.552 23.496,94.872 23.385,95.051 C23.327,95.144 23.365,95.167 23.471,95.101 C23.756,94.925 24.337,95.298 24.226,95.586 C24.162,95.752 24.237,95.833 24.453,95.833 C24.63,95.833 24.951,96.021 25.167,96.25 C25.382,96.479 25.714,96.668 25.904,96.669 C26.248,96.672 26.902,96.99 26.583,97 C26.209,97.011 26.95,97.328 27.357,97.331 C27.695,97.333 27.823,97.438 27.91,97.783 C27.972,98.03 28.074,98.159 28.136,98.069 C28.21,97.962 28.441,97.969 28.796,98.087 C29.096,98.187 29.301,98.31 29.252,98.359 C29.13,98.481 30.833,99.02 31.006,98.913 C31.082,98.866 31.243,98.963 31.364,99.129 C31.49,99.302 31.832,99.447 32.167,99.47 C32.534,99.495 32.851,99.641 33.022,99.866 C33.224,100.131 33.511,100.236 34.145,100.276 C34.732,100.313 35.104,100.437 35.342,100.675 C35.615,100.948 35.843,101.006 36.432,100.954 C36.914,100.911 37.278,100.97 37.463,101.123 C37.647,101.274 37.66,101.315 37.5,101.238 C37.298,101.141 37.29,101.161 37.457,101.341 C37.587,101.481 38.165,101.583 39.026,101.618 C40.304,101.669 40.934,101.869 40.75,102.167 C40.706,102.237 40.82,102.334 41.002,102.382 C41.184,102.43 41.333,102.392 41.333,102.297 C41.333,102.184 41.407,102.187 41.55,102.306 C41.674,102.408 42.336,102.471 43.092,102.451 L44.417,102.417 L44.445,101.199 C44.471,100.059 44.447,99.969 44.07,99.797 C43.663,99.611 43.578,99.227 43.662,97.954 C43.679,97.7 43.631,97.502 43.555,97.515 C43.115,97.592 43,97.452 43,96.843 C43,96.482 42.925,96.14 42.833,96.083 C42.742,96.027 42.666,95.816 42.664,95.615 C42.662,95.318 42.631,95.297 42.5,95.5 C42.339,95.749 42.3,95.543 42.29,94.387 C42.288,94.146 42.154,93.991 41.893,93.926 C41.593,93.85 41.5,93.713 41.5,93.344 C41.5,92.656 41.342,92.333 41.007,92.333 C40.783,92.333 40.712,92.187 40.703,91.708 C40.681,90.684 40.625,90.48 40.389,90.571 C40.254,90.623 40.167,90.538 40.167,90.356 C40.167,90.191 40.115,90.004 40.051,89.94 C39.988,89.877 39.912,89.658 39.884,89.454 C39.855,89.25 39.641,88.915 39.407,88.708 C39.173,88.502 39.061,88.333 39.157,88.333 C39.254,88.333 39.332,88.202 39.331,88.042 C39.329,87.792 39.305,87.786 39.167,88 C39.049,88.182 39.004,88.19 39.003,88.032 C39.001,87.908 38.916,87.866 38.805,87.934 C38.675,88.015 38.645,87.964 38.714,87.783 C38.772,87.633 38.75,87.468 38.667,87.417 C38.583,87.365 38.556,87.214 38.607,87.082 C38.658,86.95 38.579,86.721 38.431,86.574 C38.284,86.427 38.214,86.225 38.276,86.125 C38.347,86.009 38.288,85.982 38.111,86.05 C37.884,86.137 37.833,86.048 37.833,85.56 C37.833,85.093 37.778,84.985 37.577,85.063 C37.31,85.165 37.149,84.91 37.081,84.277 C37.017,83.682 37.009,83.667 36.75,83.667 C36.612,83.667 36.5,83.587 36.5,83.49 C36.5,83.393 36.432,83.356 36.349,83.407 C36.266,83.458 36.24,83.339 36.292,83.141 C36.36,82.88 36.328,82.817 36.176,82.911 C36.01,83.013 36.008,82.964 36.164,82.673 C36.272,82.47 36.317,82.261 36.264,82.208 C36.21,82.155 36.167,82.186 36.167,82.278 C36.167,82.369 36.054,82.444 35.917,82.444 C35.678,82.444 35.59,82.185 35.659,81.686 C35.68,81.537 35.596,81.491 35.423,81.558 C35.261,81.62 35.123,81.563 35.077,81.414 C35.035,81.278 34.951,81.035 34.89,80.875 C34.83,80.715 34.792,80.527 34.807,80.458 C34.821,80.39 34.754,80.333 34.657,80.333 C34.56,80.333 34.537,80.24 34.605,80.125 C34.685,79.992 34.625,80.002 34.439,80.153 C34.279,80.283 34.171,80.312 34.199,80.217 C34.227,80.122 34.081,79.903 33.874,79.73 C33.667,79.558 33.481,79.206 33.462,78.949 C33.434,78.59 33.356,78.499 33.13,78.558 C32.825,78.638 32.801,78.581 32.793,77.789 C32.79,77.446 32.688,77.303 32.394,77.229 C32.177,77.175 32,77.067 32,76.99 C32,76.912 31.808,76.657 31.574,76.423 C31.34,76.189 31.191,75.929 31.242,75.847 C31.293,75.764 31.16,75.715 30.946,75.739 C30.617,75.775 30.568,75.719 30.632,75.384 C30.674,75.165 30.643,75.001 30.562,75.02 C30.28,75.084 29.833,74.795 29.833,74.548 C29.833,74.392 29.737,74.334 29.578,74.395 C29.395,74.466 29.296,74.354 29.224,73.994 C29.169,73.72 29.04,73.505 28.937,73.517 C28.502,73.569 28.35,73.484 28.442,73.243 C28.505,73.08 28.458,73.004 28.312,73.035 C28.186,73.062 28.105,72.98 28.132,72.855 C28.163,72.709 28.087,72.662 27.923,72.724 C27.744,72.793 27.667,72.721 27.667,72.486 C27.667,72.263 27.501,72.092 27.177,71.979 C26.907,71.885 26.721,71.719 26.762,71.611 C26.804,71.503 26.668,71.34 26.461,71.249 C26.253,71.158 26.083,70.979 26.083,70.852 C26.083,70.725 25.915,70.559 25.708,70.483 C25.488,70.401 25.333,70.408 25.333,70.5 C25.333,70.586 25.221,70.613 25.084,70.561 C24.947,70.508 24.877,70.398 24.927,70.316 C24.978,70.234 24.921,70.166 24.802,70.164 C24.642,70.162 24.651,70.116 24.833,69.993 C25.025,69.863 24.966,69.835 24.583,69.87 C24.142,69.911 24.09,69.87 24.139,69.518 C24.183,69.212 24.135,69.143 23.931,69.221 C23.786,69.277 23.667,69.246 23.667,69.152 C23.667,69.057 23.597,69.023 23.512,69.076 C23.427,69.129 23.333,69.002 23.304,68.794 C23.265,68.523 23.121,68.402 22.792,68.364 C22.511,68.332 22.333,68.211 22.333,68.052 C22.333,67.84 22.287,67.831 22.083,68 C21.879,68.17 21.833,68.159 21.833,67.937 C21.833,67.778 21.696,67.667 21.5,67.667 C21.198,67.667 21.086,67.489 21.151,67.114 C21.164,67.039 21.041,66.991 20.879,67.008 C20.716,67.025 20.527,67.02 20.458,66.998 C20.39,66.976 20.258,66.949 20.167,66.938 C20.075,66.926 19.99,66.842 19.978,66.75 C19.945,66.509 19.359,66.131 19.184,66.239 C19.102,66.29 18.989,66.144 18.931,65.916 C18.839,65.549 18.738,65.5 18.07,65.5 C17.654,65.5 17.351,65.44 17.396,65.367 C17.564,65.094 17.214,64.837 16.615,64.794 C16.252,64.768 16.026,64.675 16.066,64.568 C16.192,64.239 15.911,64.009 15.326,63.962 C14.949,63.933 14.706,63.809 14.623,63.606 C14.531,63.38 14.379,63.318 14.069,63.377 C13.798,63.429 13.608,63.375 13.553,63.23 C13.505,63.105 13.386,63.051 13.29,63.11 C13.181,63.178 13.146,63.095 13.199,62.893 C13.267,62.634 13.196,62.565 12.85,62.554 C11.725,62.519 11.667,62.5 11.667,62.166 C11.667,61.907 11.564,61.838 11.208,61.856 C10.402,61.899 10.167,61.839 10.167,61.593 C10.167,61.227 10.085,61.197 8.38,60.93 C8.268,60.913 8.118,60.834 8.046,60.756 C7.975,60.677 8.029,60.668 8.167,60.736 C8.304,60.803 8.271,60.74 8.093,60.596 C7.915,60.451 7.53,60.333 7.238,60.333 C6.837,60.333 6.683,60.247 6.614,59.982 C6.534,59.678 6.421,59.639 5.759,59.692 C5.195,59.737 5.016,59.698 5.076,59.543 C5.12,59.428 5.046,59.333 4.911,59.333 C4.777,59.333 4.667,59.262 4.667,59.175 C4.667,59.088 4.218,58.966 3.67,58.904 C3.122,58.842 2.704,58.741 2.742,58.679 C2.78,58.618 2.742,58.458 2.658,58.325 C2.548,58.15 2.504,58.143 2.503,58.298 C2.501,58.448 2.413,58.467 2.208,58.36 C1.885,58.191 0.358,58.156 0.263,58.315 C0.086,58.609 0.181,61.239 0.373,61.361 Z M100.167,58.452 C99.806,58.357 99.7,58.585 100.042,58.723 C100.156,58.769 99.931,58.813 99.542,58.82 C99.121,58.828 98.833,58.912 98.833,59.028 C98.833,59.135 98.784,59.173 98.724,59.113 C98.663,59.052 98.513,59.086 98.39,59.189 C98.225,59.326 98.167,59.323 98.167,59.177 C98.167,59.069 98.09,59.027 97.997,59.085 C97.904,59.143 97.871,59.26 97.924,59.345 C97.977,59.43 97.936,59.5 97.833,59.5 C97.731,59.5 97.682,59.556 97.724,59.625 C97.767,59.694 97.434,59.724 96.984,59.692 C96.155,59.634 95.999,59.753 96.375,60.158 C96.515,60.309 96.519,60.346 96.387,60.272 C96.278,60.211 96.149,60.228 96.098,60.309 C96.048,60.391 95.768,60.429 95.475,60.395 C95.141,60.356 94.83,60.436 94.638,60.609 C94.471,60.761 94.332,60.817 94.331,60.734 C94.329,60.651 94.266,60.681 94.191,60.8 C94.115,60.919 93.891,61.029 93.693,61.044 C93.495,61.059 93.333,61.182 93.333,61.317 C93.333,61.502 93.268,61.483 93.07,61.24 C92.848,60.968 92.82,60.962 92.897,61.206 C93.014,61.58 92.456,61.885 91.652,61.885 C91.144,61.885 91.058,61.935 91.125,62.192 C91.19,62.44 91.11,62.5 90.714,62.5 C90.443,62.5 90.166,62.556 90.097,62.625 C90.028,62.694 89.885,62.75 89.778,62.75 C89.671,62.75 89.583,62.856 89.583,62.986 C89.583,63.124 89.375,63.247 89.083,63.283 C88.32,63.376 88.163,63.464 88.271,63.744 C88.373,64.01 88.261,64.049 87.453,64.032 C87.165,64.026 86.912,64.146 86.786,64.349 C86.67,64.536 86.317,64.718 85.958,64.776 C85.494,64.85 85.333,64.956 85.333,65.188 C85.333,65.491 85.245,65.525 84.333,65.572 C84.086,65.585 83.935,65.682 83.963,65.811 C83.989,65.931 83.857,66.068 83.671,66.117 C83.485,66.166 83.332,66.291 83.331,66.394 C83.329,66.498 83.256,66.471 83.167,66.333 C83.027,66.117 83.005,66.121 83.003,66.363 C83.001,66.516 82.775,66.754 82.5,66.892 C82.225,67.029 82,67.072 82,66.987 C82,66.903 81.925,66.833 81.833,66.833 C81.742,66.833 81.667,67.021 81.667,67.25 C81.667,67.546 81.576,67.667 81.354,67.667 C81.049,67.667 80.542,68.119 80.624,68.317 C80.647,68.371 80.441,68.413 80.166,68.408 C79.891,68.404 79.667,68.481 79.667,68.58 C79.667,68.841 79.101,69.284 78.867,69.206 C78.754,69.168 78.667,69.29 78.667,69.486 C78.667,69.728 78.56,69.833 78.316,69.833 C78.075,69.833 77.994,69.911 78.058,70.078 C78.176,70.384 77.908,70.556 77.255,70.593 C76.472,70.637 76.446,70.651 76.661,70.91 C76.827,71.11 76.788,71.172 76.437,71.26 C76.203,71.318 75.968,71.505 75.914,71.675 C75.86,71.844 75.67,72.029 75.491,72.086 C75.313,72.143 75.167,72.279 75.167,72.388 C75.167,72.498 74.998,72.662 74.792,72.752 C74.584,72.843 74.416,73.065 74.415,73.25 C74.413,73.499 74.318,73.57 74.04,73.531 C73.785,73.496 73.667,73.565 73.667,73.749 C73.667,73.898 73.742,73.973 73.833,73.917 C73.925,73.86 74,73.893 74,73.99 C74,74.087 73.887,74.167 73.75,74.167 C73.612,74.167 73.499,74.26 73.497,74.375 C73.496,74.514 73.441,74.501 73.331,74.333 C73.13,74.027 72.807,74.403 72.95,74.777 C73.005,74.92 72.909,75 72.68,75 C72.46,75 72.268,75.15 72.175,75.394 C72.093,75.611 71.868,75.829 71.675,75.88 C71.482,75.93 71.345,76.039 71.37,76.122 C71.446,76.367 70.367,77.511 70.275,77.284 C70.23,77.174 70.181,77.233 70.167,77.417 C70.096,78.335 69.812,78.776 69.44,78.546 C69.348,78.489 69.321,78.6 69.375,78.807 C69.427,79.005 69.398,79.167 69.312,79.167 C69.226,79.167 69.088,79.335 69.005,79.542 C68.922,79.748 68.85,79.823 68.844,79.708 C68.838,79.594 68.761,79.5 68.672,79.5 C68.583,79.5 68.554,79.612 68.606,79.75 C68.659,79.887 68.615,80 68.508,80 C68.401,80 68.352,80.061 68.398,80.136 C68.444,80.211 68.336,80.378 68.158,80.506 C67.979,80.635 67.833,80.911 67.833,81.12 C67.833,81.418 67.74,81.5 67.398,81.5 C67.002,81.5 66.969,81.55 67.029,82.064 C67.074,82.445 67.032,82.605 66.902,82.555 C66.72,82.485 66.505,82.809 66.404,83.309 C66.378,83.433 66.212,83.637 66.033,83.762 C65.854,83.887 65.708,84.176 65.708,84.403 C65.708,84.874 65.347,85.31 65.04,85.208 C64.896,85.16 64.833,85.369 64.833,85.903 C64.833,86.556 64.785,86.667 64.5,86.667 C64.236,86.667 64.166,86.779 64.164,87.208 C64.163,87.506 64.106,87.665 64.039,87.56 C63.95,87.423 63.857,87.434 63.702,87.602 C63.526,87.791 63.526,87.834 63.702,87.836 C63.861,87.838 63.855,87.877 63.679,87.989 C63.548,88.072 63.415,88.31 63.383,88.519 C63.351,88.728 63.198,89.04 63.043,89.212 C62.788,89.493 62.723,89.761 62.68,90.718 C62.673,90.884 62.6,90.979 62.519,90.928 C62.255,90.765 61.96,91.317 62.035,91.832 C62.094,92.23 62.048,92.333 61.81,92.333 C61.417,92.333 61.203,92.773 61.229,93.528 C61.243,93.946 61.194,94.092 61.071,93.99 C60.839,93.797 60.497,94.131 60.614,94.436 C60.662,94.562 60.787,94.622 60.892,94.57 C60.997,94.518 60.946,94.587 60.778,94.725 C60.568,94.896 60.488,95.147 60.522,95.529 C60.556,95.897 60.505,96.069 60.37,96.042 C60.258,96.019 60.167,96.079 60.167,96.177 C60.167,96.274 60.092,96.307 60,96.25 C59.9,96.188 59.833,96.408 59.833,96.803 C59.833,97.406 59.514,97.958 59.293,97.737 C59.242,97.686 59.208,97.743 59.218,97.864 C59.271,98.508 58.943,99.653 58.691,99.702 C58.467,99.745 58.413,99.989 58.397,101.041 L58.378,102.327 L58.897,102.418 C59.625,102.545 61.666,102.445 61.666,102.282 C61.666,102.208 61.76,102.203 61.875,102.272 C61.995,102.344 61.977,102.266 61.833,102.088 C61.597,101.796 61.605,101.79 61.984,101.992 C62.324,102.173 62.37,102.169 62.291,101.963 C62.2,101.727 62.525,101.678 64.613,101.612 C64.91,101.602 64.947,101.545 64.815,101.3 C64.692,101.069 64.716,101 64.921,101 C65.091,101 65.14,101.075 65.058,101.208 C64.978,101.337 65.085,101.318 65.34,101.156 C65.565,101.013 65.994,100.91 66.292,100.928 C66.602,100.947 66.834,100.88 66.836,100.772 C66.838,100.646 66.879,100.641 66.961,100.756 C67.162,101.039 67.562,100.94 67.659,100.583 C67.734,100.309 67.91,100.243 68.655,100.211 C69.468,100.176 69.72,100.054 69.873,99.621 C69.899,99.551 70.197,99.482 70.536,99.47 C70.876,99.457 71.119,99.391 71.076,99.322 C71.034,99.254 71.161,99.24 71.359,99.292 C71.594,99.353 71.68,99.323 71.607,99.204 C71.456,98.961 71.627,98.876 72.408,98.809 C72.795,98.776 73.21,98.608 73.417,98.401 C73.646,98.173 73.951,98.061 74.29,98.081 C74.71,98.106 74.83,98.036 74.909,97.723 C74.983,97.427 75.122,97.333 75.49,97.333 C76.097,97.333 76.525,97.175 76.411,96.991 C76.363,96.913 76.495,96.755 76.704,96.639 C77.109,96.414 77.172,96.394 77.625,96.341 C77.809,96.32 77.839,96.276 77.707,96.223 C77.383,96.092 77.639,95.833 78.093,95.833 C78.456,95.833 78.58,95.676 78.52,95.292 C78.509,95.223 78.631,95.156 78.792,95.142 C79.444,95.087 79.596,95.057 79.874,94.931 C80.034,94.858 80.123,94.731 80.073,94.649 C80.022,94.567 80.126,94.5 80.303,94.5 C80.59,94.5 81.149,94.039 81.042,93.891 C80.895,93.687 81.047,93.662 81.292,93.849 C81.452,93.972 81.526,94.005 81.456,93.922 C81.385,93.84 81.553,93.677 81.829,93.562 C82.193,93.409 82.3,93.275 82.223,93.073 C82.136,92.846 82.186,92.817 82.496,92.915 C82.717,92.985 82.835,92.971 82.78,92.882 C82.727,92.797 82.826,92.625 83,92.5 C83.174,92.375 83.268,92.193 83.209,92.095 C83.151,91.997 83.248,92.027 83.426,92.161 C83.604,92.296 83.695,92.34 83.627,92.261 C83.484,92.091 84.45,91.333 84.81,91.333 C84.945,91.333 85.012,91.289 84.958,91.236 C84.794,91.072 85.368,90.524 85.608,90.616 C85.736,90.665 85.833,90.594 85.833,90.452 C85.833,90.215 86.274,89.917 86.542,89.974 C86.61,89.988 86.667,89.859 86.667,89.686 C86.667,89.512 86.816,89.333 87,89.285 C87.183,89.237 87.333,89.083 87.333,88.944 C87.333,88.804 87.472,88.645 87.641,88.591 C87.811,88.538 88.036,88.303 88.142,88.071 C88.248,87.838 88.414,87.697 88.512,87.757 C88.609,87.818 88.73,87.709 88.781,87.517 C88.831,87.324 88.983,87.167 89.118,87.167 C89.254,87.167 89.4,87.032 89.443,86.868 C89.485,86.704 89.685,86.498 89.885,86.41 C90.104,86.314 90.243,86.111 90.232,85.903 C90.218,85.625 90.293,85.57 90.607,85.63 C91.033,85.712 91.119,85.519 90.8,85.2 C90.644,85.044 90.666,85 90.895,85 C91.29,85 91.746,84.556 91.457,84.453 C91.16,84.347 91.422,84.125 91.87,84.102 C92.086,84.092 92.252,83.975 92.254,83.833 C92.257,83.696 92.318,83.49 92.389,83.375 C92.461,83.26 92.478,83.1 92.428,83.018 C92.377,82.936 92.53,82.82 92.769,82.76 C93.096,82.678 93.181,82.572 93.116,82.326 C93.069,82.146 93.093,82.038 93.17,82.085 C93.246,82.132 93.343,82.039 93.385,81.877 C93.457,81.6 93.462,81.599 93.481,81.875 C93.514,82.382 93.81,82.19 93.864,81.626 C93.902,81.237 94.01,81.072 94.25,81.034 C94.531,80.99 94.544,81.012 94.333,81.17 C94.111,81.338 94.111,81.351 94.333,81.29 C94.63,81.209 94.674,80.845 94.427,80.51 C94.292,80.326 94.302,80.301 94.469,80.401 C94.624,80.494 94.673,80.443 94.636,80.229 C94.607,80.061 94.68,79.922 94.798,79.92 C95.072,79.916 95.326,79.509 95.223,79.24 C95.18,79.127 95.225,78.983 95.325,78.922 C95.424,78.861 95.455,78.729 95.394,78.629 C95.326,78.521 95.36,78.497 95.477,78.569 C95.584,78.635 95.622,78.778 95.56,78.887 C95.499,78.995 95.599,78.933 95.783,78.75 C96.001,78.534 96.055,78.376 95.939,78.301 C95.768,78.19 96.397,77.5 96.669,77.5 C96.734,77.5 96.767,77.311 96.741,77.081 C96.716,76.85 96.798,76.559 96.923,76.434 C97.048,76.309 97.098,76.144 97.034,76.067 C96.969,75.99 97.033,76.016 97.175,76.123 C97.395,76.29 97.438,76.229 97.472,75.701 C97.527,74.814 97.671,74.404 97.834,74.667 C97.964,74.878 98.368,74.36 98.316,74.048 C98.247,73.638 98.366,73.333 98.593,73.333 C98.736,73.333 98.811,73.265 98.759,73.181 C98.707,73.097 98.737,73.003 98.825,72.973 C98.913,72.942 99.003,72.646 99.025,72.316 C99.055,71.858 99.128,71.731 99.331,71.784 C99.535,71.838 99.607,71.708 99.639,71.233 C99.686,70.532 99.792,70.288 99.995,70.414 C100.143,70.505 100.486,69.255 100.547,68.402 C100.574,68.014 100.651,67.904 100.859,67.959 C101.017,68 101.13,67.935 101.124,67.807 C101.064,66.492 101.185,65.85 101.513,65.746 C101.79,65.658 101.852,65.515 101.823,65.026 C101.755,63.881 101.832,62.98 101.99,63.077 C102.303,63.27 102.666,62.103 102.638,60.999 C102.609,59.881 102.762,59.103 102.984,59.24 C103.054,59.283 103.111,59.213 103.111,59.083 C103.111,58.954 103.049,58.887 102.972,58.934 C102.896,58.981 102.833,58.898 102.833,58.75 C102.833,58.589 102.911,58.528 103.026,58.599 C103.146,58.674 103.173,58.645 103.098,58.523 C103.031,58.416 102.912,58.368 102.833,58.417 C102.754,58.465 102.643,58.429 102.585,58.336 C102.527,58.243 102.105,58.167 101.647,58.167 C101.025,58.167 100.845,58.219 100.939,58.375 C101.024,58.517 100.974,58.51 100.782,58.355 C100.57,58.182 100.5,58.177 100.5,58.332 C100.5,58.457 100.368,58.504 100.167,58.452 Z M18.018,91.5 C18.208,91.5 18.213,91.048 18.023,90.931 C17.944,90.882 17.837,90.885 17.785,90.937 C17.655,91.068 17.834,91.5 18.018,91.5 Z M58.745,100.008 C58.806,99.909 58.933,99.875 59.026,99.933 C59.14,100.003 59.137,100.096 59.017,100.216 C58.803,100.43 58.586,100.265 58.745,100.008 Z" id="path1" fill="#E42C34"></path>
        </g>
    </g>
</svg>
